# xmcd
#
# Track frame offsets:
#	150
#	18440
#	35373
#	52176
#	69547
#	88465
#	104934
#	122827
#	138122
#	155200
#	173287
#	191434
#	207579
#	226540
#	243961
#	261260
#	279055
#	297779
#
# Disc length: 4203 seconds
#
# Revision: 0
# Processed by: cddbd v1.5.2PL0 Copyright (c) Steve Scherf et al.
# Submitted via: EasyCDDAExtractor 10.0.2.1
#
DISCID=04106912
DTITLE=Various Artist - Synteesi Suomibuumi Volume 1
DYEAR=1900
DGENRE=Pop
TTITLE0=Tese - Autiotalo (2004 Versio)
TTITLE1=Makeboy - Hän Tanssii Kanssa Enkelten
TTITLE2=Dj. Regal Feat. Ewing - Minä Olen Muistanut
TTITLE3=Mira - Vie Mut Minne Vaan
TTITLE4=Bronco Feat. Ewing - Yhtä En Saa
TTITLE5=J. R. Nova Feat. T-Bird - Pitääxunaina
TTITLE6=Tese - Älä Mee
TTITLE7=Shelby Beats Vs. Ewing - Enkelit Lentää Sun Uniin
TTITLE8=Mira - Ai Ai Ai
TTITLE9=Ninni Martikainen-Sveta - Lapsuuden Sankarille
TTITLE10=Satellite Feat. Shyguy - Vihreän Joen Rannalla
TTITLE11=Mira - Kuka On Se Oikea
TTITLE12=Starfire Twins - Hyvää yötä ja huomenta
TTITLE13=Tese - Katson Autiota Hiekkarantaa
TTITLE14=Electra Bros. - Hyvää Ja Kaunista
TTITLE15=Tese - Vuosisadan Rakkaustarina
TTITLE16=Jone - Katujen Kuningatar
TTITLE17=Ninni Martikainen - Rakkauden Jälkeen
EXTD=Album name is suomi synteesi and my name is to tapani suopanki\n
EXTT0=
EXTT1=
EXTT2=
EXTT3=
EXTT4=
EXTT5=
EXTT6=
EXTT7=
EXTT8=
EXTT9=
EXTT10=
EXTT11=
EXTT12=
EXTT13=
EXTT14=
EXTT15=
EXTT16=
EXTT17=
PLAYORDER=
